<?xml version="1.0" standalone="no"?><svg xmlns="http://www.w3.org/2000/svg" viewBox="0 0 1440 320"><path fill="#5330E1" fill-opacity="0.95" d="M0,224L26.7,229.3C53.3,235,107,245,160,261.3C213.3,277,267,299,320,293.3C373.3,288,427,256,480,256C533.3,256,587,288,640,256C693.3,224,747,128,800,101.3C853.3,75,907,117,960,133.3C1013.3,149,1067,139,1120,128C1173.3,117,1227,107,1280,90.7C1333.3,75,1387,53,1413,42.7L1440,32L1440,320L1413.3,320C1386.7,320,1333,320,1280,320C1226.7,320,1173,320,1120,320C1066.7,320,1013,320,960,320C906.7,320,853,320,800,320C746.7,320,693,320,640,320C586.7,320,533,320,480,320C426.7,320,373,320,320,320C266.7,320,213,320,160,320C106.7,320,53,320,27,320L0,320Z"></path></svg>